<svg width="2809" height="1052" xmlns="http://www.w3.org/2000/svg" xmlns:xlink="http://www.w3.org/1999/xlink" xml:space="preserve" overflow="hidden"><defs><clipPath id="clip0"><rect x="1877" y="119" width="2809" height="1052"/></clipPath><clipPath id="clip1"><rect x="1877" y="120" width="2806" height="1049"/></clipPath><clipPath id="clip2"><rect x="2151" y="182" width="2485" height="709"/></clipPath><clipPath id="clip3"><rect x="2151" y="182" width="2485" height="709"/></clipPath><clipPath id="clip4"><rect x="2151" y="182" width="2485" height="709"/></clipPath><clipPath id="clip5"><rect x="2151" y="182" width="2485" height="709"/></clipPath><clipPath id="clip6"><rect x="2151" y="182" width="2485" height="709"/></clipPath><clipPath id="clip7"><rect x="2151" y="182" width="2485" height="706"/></clipPath><clipPath id="clip8"><rect x="2151" y="182" width="2485" height="706"/></clipPath><clipPath id="clip9"><rect x="2151" y="182" width="2485" height="706"/></clipPath><clipPath id="clip10"><rect x="2151" y="182" width="2485" height="706"/></clipPath><clipPath id="clip11"><rect x="2151" y="182" width="2485" height="706"/></clipPath><clipPath id="clip12"><rect x="2151" y="182" width="2485" height="706"/></clipPath><clipPath id="clip13"><rect x="2151" y="182" width="2485" height="706"/></clipPath><clipPath id="clip14"><rect x="2151" y="182" width="2485" height="706"/></clipPath><clipPath id="clip15"><rect x="2151" y="182" width="2485" height="706"/></clipPath><clipPath id="clip16"><rect x="2151" y="182" width="2485" height="706"/></clipPath><clipPath id="clip17"><rect x="2151" y="182" width="2485" height="706"/></clipPath><clipPath id="clip18"><rect x="2151" y="182" width="2485" height="706"/></clipPath><clipPath id="clip19"><rect x="2151" y="182" width="2485" height="706"/></clipPath><clipPath id="clip20"><rect x="2151" y="182" width="2485" height="706"/></clipPath><clipPath id="clip21"><rect x="2151" y="182" width="2485" height="706"/></clipPath><clipPath id="clip22"><rect x="1877" y="120" width="2806" height="1049"/></clipPath><clipPath id="clip23"><rect x="1877" y="120" width="2806" height="1049"/></clipPath><clipPath id="clip24"><rect x="1877" y="120" width="2806" height="1049"/></clipPath><clipPath id="clip25"><rect x="1877" y="120" width="2806" height="1049"/></clipPath><clipPath id="clip26"><rect x="1877" y="120" width="2806" height="1049"/></clipPath><clipPath id="clip27"><rect x="1877" y="120" width="2806" height="1049"/></clipPath><clipPath id="clip28"><rect x="1877" y="120" width="2806" height="1049"/></clipPath><clipPath id="clip29"><rect x="1877" y="120" width="2806" height="1049"/></clipPath><clipPath id="clip30"><rect x="1877" y="120" width="2806" height="1049"/></clipPath><clipPath id="clip31"><rect x="1877" y="120" width="2806" height="1049"/></clipPath><clipPath id="clip32"><rect x="1877" y="120" width="2806" height="1049"/></clipPath><clipPath id="clip33"><rect x="1877" y="120" width="2806" height="1049"/></clipPath><clipPath id="clip34"><rect x="1877" y="120" width="2806" height="1049"/></clipPath><clipPath id="clip35"><rect x="1877" y="120" width="2806" height="1049"/></clipPath><clipPath id="clip36"><rect x="1877" y="120" width="2806" height="1049"/></clipPath><clipPath id="clip37"><rect x="1877" y="120" width="2806" height="1049"/></clipPath><clipPath id="clip38"><rect x="1877" y="120" width="2806" height="1049"/></clipPath><clipPath id="clip39"><rect x="1877" y="120" width="2806" height="1049"/></clipPath><clipPath id="clip40"><rect x="1877" y="120" width="2806" height="1049"/></clipPath><clipPath id="clip41"><rect x="1877" y="120" width="2806" height="1049"/></clipPath><clipPath id="clip42"><rect x="1877" y="120" width="2806" height="1049"/></clipPath><clipPath id="clip43"><rect x="1877" y="120" width="2806" height="1049"/></clipPath><clipPath id="clip44"><rect x="1877" y="120" width="2806" height="1049"/></clipPath><clipPath id="clip45"><rect x="1877" y="120" width="2806" height="1049"/></clipPath></defs><g clip-path="url(#clip0)" transform="translate(-1877 -119)"><rect x="1878" y="120" width="2806" height="1049" fill="#FFFFFF"/><g clip-path="url(#clip1)"><path d="M2151.5 799.526 4633.5 799.526M2151.5 711.524 4633.5 711.524M2151.5 623.521 4633.5 623.521M2151.5 535.518 4633.5 535.518M2151.5 446.515 4633.5 446.515M2151.5 358.512 4633.5 358.512M2151.5 270.509 4633.5 270.509M2151.5 182.5 4633.5 182.5" stroke="#D9D9D9" stroke-width="3.4375" stroke-linejoin="round" stroke-miterlimit="10" fill="none"/></g><g clip-path="url(#clip2)"><path d="M2261.07 523.017 2361.08 523.017 2361.08 888 2261.07 888ZM3088.1 523.017 3188.1 523.017 3188.1 888 3088.1 888ZM3916.13 523.017 4016.13 523.017 4016.13 888 3916.13 888Z" fill="#4472C4"/></g><g clip-path="url(#clip3)"><path d="M2388.08 478.016 2488.08 478.016 2488.08 888 2388.08 888ZM3215.11 473.016 3315.11 473.016 3315.11 888 3215.11 888ZM4043.13 430.014 4143.14 430.014 4143.14 888 4043.13 888Z" fill="#FF0000"/></g><g clip-path="url(#clip4)"><path d="M2515.08 427.014 2615.09 427.014 2615.09 888 2515.08 888ZM3342.11 430.014 3442.11 430.014 3442.11 888 3342.11 888ZM4170.14 381.013 4270.14 381.013 4270.14 888 4170.14 888Z" fill="#FF7575"/></g><g clip-path="url(#clip5)"><path d="M2642.09 365.012 2742.09 365.012 2742.09 888 2642.09 888ZM3469.11 360.012 3569.12 360.012 3569.12 888 3469.11 888ZM4297.14 344.011 4397.14 344.011 4397.14 888 4297.14 888Z" fill="#70AD47"/></g><g clip-path="url(#clip6)"><path d="M2769.09 364.012 2869.09 364.012 2869.09 888 2769.09 888ZM3596.12 330.011 3697.12 330.011 3697.12 888 3596.12 888ZM4424.15 321.011 4524.15 321.011 4524.15 888 4424.15 888Z"/></g><g clip-path="url(#clip7)"><path d="M2310.58 522.517 2310.58 561.5M2310.58 522.517 2310.58 484.5M2300.5 561.5 2321.5 561.5M2300.5 484.5 2321.5 484.5" stroke="#595959" stroke-width="3.4375" stroke-linejoin="round" stroke-miterlimit="10" fill="none"/></g><g clip-path="url(#clip8)"><path d="M3138.6 522.517 3138.6 561.5M3138.6 522.517 3138.6 484.5M3128.5 561.5 3148.5 561.5M3128.5 484.5 3148.5 484.5" stroke="#595959" stroke-width="3.4375" stroke-linejoin="round" stroke-miterlimit="10" fill="none"/></g><g clip-path="url(#clip9)"><path d="M3965.63 522.517 3965.63 561.5M3965.63 522.517 3965.63 484.5M3955.5 561.5 3976.5 561.5M3955.5 484.5 3976.5 484.5" stroke="#595959" stroke-width="3.4375" stroke-linejoin="round" stroke-miterlimit="10" fill="none"/></g><g clip-path="url(#clip10)"><path d="M2438.58 477.516 2438.58 514.5M2438.58 477.516 2438.58 440.5M2427.5 514.5 2448.5 514.5M2427.5 440.5 2448.5 440.5" stroke="#595959" stroke-width="3.4375" stroke-linejoin="round" stroke-miterlimit="10" fill="none"/></g><g clip-path="url(#clip11)"><path d="M3265.61 473.516 3265.61 512.5M3265.61 473.516 3265.61 434.5M3255.5 512.5 3275.5 512.5M3255.5 434.5 3275.5 434.5" stroke="#595959" stroke-width="3.4375" stroke-linejoin="round" stroke-miterlimit="10" fill="none"/></g><g clip-path="url(#clip12)"><path d="M4092.63 430.514 4092.63 486.5M4092.63 430.514 4092.63 373.5M4082.5 486.5 4103.5 486.5M4082.5 373.5 4103.5 373.5" stroke="#595959" stroke-width="3.4375" stroke-linejoin="round" stroke-miterlimit="10" fill="none"/></g><g clip-path="url(#clip13)"><path d="M2565.58 426.514 2565.58 481.5M2565.58 426.514 2565.58 371.5M2554.5 481.5 2575.5 481.5M2554.5 371.5 2575.5 371.5" stroke="#595959" stroke-width="3.4375" stroke-linejoin="round" stroke-miterlimit="10" fill="none"/></g><g clip-path="url(#clip14)"><path d="M3392.61 430.514 3392.61 472.5M3392.61 430.514 3392.61 387.5M3382.5 472.5 3402.5 472.5M3382.5 387.5 3402.5 387.5" stroke="#595959" stroke-width="3.4375" stroke-linejoin="round" stroke-miterlimit="10" fill="none"/></g><g clip-path="url(#clip15)"><path d="M4219.64 380.513 4219.64 429.5M4219.64 380.513 4219.64 332.5M4209.5 429.5 4230.5 429.5M4209.5 332.5 4230.5 332.5" stroke="#595959" stroke-width="3.4375" stroke-linejoin="round" stroke-miterlimit="10" fill="none"/></g><g clip-path="url(#clip16)"><path d="M2692.59 364.512 2692.59 423.5M2692.59 364.512 2692.59 306.5M2681.5 423.5 2702.5 423.5M2681.5 306.5 2702.5 306.5" stroke="#595959" stroke-width="3.4375" stroke-linejoin="round" stroke-miterlimit="10" fill="none"/></g><g clip-path="url(#clip17)"><path d="M3519.62 359.512 3519.62 412.5M3519.62 359.512 3519.62 306.5M3509.5 412.5 3529.5 412.5M3509.5 306.5 3529.5 306.5" stroke="#595959" stroke-width="3.4375" stroke-linejoin="round" stroke-miterlimit="10" fill="none"/></g><g clip-path="url(#clip18)"><path d="M4346.64 343.511 4346.64 416.5M4346.64 343.511 4346.64 271.5M4336.5 416.5 4357.5 416.5M4336.5 271.5 4357.5 271.5" stroke="#595959" stroke-width="3.4375" stroke-linejoin="round" stroke-miterlimit="10" fill="none"/></g><g clip-path="url(#clip19)"><path d="M2819.59 364.512 2819.59 443.5M2819.59 364.512 2819.59 284.5M2808.5 443.5 2829.5 443.5M2808.5 284.5 2829.5 284.5" stroke="#595959" stroke-width="3.4375" stroke-linejoin="round" stroke-miterlimit="10" fill="none"/></g><g clip-path="url(#clip20)"><path d="M3646.62 329.511 3646.62 419.5M3646.62 329.511 3646.62 239.5M3636.5 419.5 3656.5 419.5M3636.5 239.5 3656.5 239.5" stroke="#595959" stroke-width="3.4375" stroke-linejoin="round" stroke-miterlimit="10" fill="none"/></g><g clip-path="url(#clip21)"><path d="M4473.65 320.511 4473.65 415.5M4473.65 320.511 4473.65 226.5M4463.5 415.5 4484.5 415.5M4463.5 226.5 4484.5 226.5" stroke="#595959" stroke-width="3.4375" stroke-linejoin="round" stroke-miterlimit="10" fill="none"/></g><g clip-path="url(#clip22)"><path d="M2151.5 888.5 4633.5 888.5" stroke="#D9D9D9" stroke-width="3.4375" stroke-linejoin="round" stroke-miterlimit="10" fill="none" fill-rule="evenodd"/></g><g clip-path="url(#clip23)"><text fill="#595959" font-family="Calibri,Calibri_MSFontService,sans-serif" font-weight="400" font-size="64" transform="matrix(1 0 0 1 2059.45 906)">0</text></g><g clip-path="url(#clip24)"><text fill="#595959" font-family="Calibri,Calibri_MSFontService,sans-serif" font-weight="400" font-size="64" transform="matrix(1 0 0 1 2026.93 818)">10</text></g><g clip-path="url(#clip25)"><text fill="#595959" font-family="Calibri,Calibri_MSFontService,sans-serif" font-weight="400" font-size="64" transform="matrix(1 0 0 1 2026.93 730)">20</text></g><g clip-path="url(#clip26)"><text fill="#595959" font-family="Calibri,Calibri_MSFontService,sans-serif" font-weight="400" font-size="64" transform="matrix(1 0 0 1 2026.93 642)">30</text></g><g clip-path="url(#clip27)"><text fill="#595959" font-family="Calibri,Calibri_MSFontService,sans-serif" font-weight="400" font-size="64" transform="matrix(1 0 0 1 2026.93 554)">40</text></g><g clip-path="url(#clip28)"><text fill="#595959" font-family="Calibri,Calibri_MSFontService,sans-serif" font-weight="400" font-size="64" transform="matrix(1 0 0 1 2026.93 465)">50</text></g><g clip-path="url(#clip29)"><text fill="#595959" font-family="Calibri,Calibri_MSFontService,sans-serif" font-weight="400" font-size="64" transform="matrix(1 0 0 1 2026.93 377)">60</text></g><g clip-path="url(#clip30)"><text fill="#595959" font-family="Calibri,Calibri_MSFontService,sans-serif" font-weight="400" font-size="64" transform="matrix(1 0 0 1 2026.93 289)">70</text></g><g clip-path="url(#clip31)"><text fill="#595959" font-family="Calibri,Calibri_MSFontService,sans-serif" font-weight="400" font-size="64" transform="matrix(1 0 0 1 2026.93 201)">80</text></g><g clip-path="url(#clip32)"><text fill="#595959" font-family="Calibri,Calibri_MSFontService,sans-serif" font-weight="400" font-size="64" transform="matrix(1 0 0 1 2453.76 990)">Layout 1</text></g><g clip-path="url(#clip33)"><text fill="#595959" font-family="Calibri,Calibri_MSFontService,sans-serif" font-weight="400" font-size="64" transform="matrix(1 0 0 1 3281.1 990)">Layout 2</text></g><g clip-path="url(#clip34)"><text fill="#595959" font-family="Calibri,Calibri_MSFontService,sans-serif" font-weight="400" font-size="64" transform="matrix(1 0 0 1 4108.44 990)">Layout 3</text></g><g clip-path="url(#clip35)"><text fill="#595959" font-family="Calibri,Calibri_MSFontService,sans-serif" font-weight="400" font-size="64" transform="matrix(6.12323e-17 -1 1 6.12323e-17 1995.86 708)">Makespan (s)</text></g><g clip-path="url(#clip36)"><rect x="2215" y="1072" width="34.9998" height="34.9998" fill="#4472C4"/></g><g clip-path="url(#clip37)"><text fill="#595959" font-family="Calibri,Calibri_MSFontService,sans-serif" font-weight="400" font-size="64" transform="matrix(1 0 0 1 2265.96 1108)">Google OR-Tools</text></g><g clip-path="url(#clip38)"><rect x="2785" y="1072" width="35" height="34.9998" fill="#FF0000"/></g><g clip-path="url(#clip39)"><text fill="#595959" font-family="Calibri,Calibri_MSFontService,sans-serif" font-weight="400" font-size="64" transform="matrix(1 0 0 1 2835.68 1108)">Native Agents</text></g><g clip-path="url(#clip40)"><rect x="3282" y="1072" width="35.9998" height="34.9998" fill="#FF7575"/></g><g clip-path="url(#clip41)"><text fill="#595959" font-family="Calibri,Calibri_MSFontService,sans-serif" font-weight="400" font-size="64" transform="matrix(1 0 0 1 3333.46 1108)">Unseen Layout Agents</text></g><g clip-path="url(#clip42)"><rect x="3999" y="1072" width="35" height="34.9998" fill="#70AD47"/></g><g clip-path="url(#clip43)"><text fill="#595959" font-family="Calibri,Calibri_MSFontService,sans-serif" font-weight="400" font-size="64" transform="matrix(1 0 0 1 4049.78 1108)">SPT</text></g><g clip-path="url(#clip44)"><rect x="4227" y="1072" width="35" height="34.9998"/></g><g clip-path="url(#clip45)"><text fill="#595959" font-family="Calibri,Calibri_MSFontService,sans-serif" font-weight="400" font-size="64" transform="matrix(1 0 0 1 4278.1 1108)">LPT</text></g><rect x="1878.5" y="120.5" width="2806" height="1049" stroke="#D9D9D9" stroke-width="3.4375" stroke-linejoin="round" stroke-miterlimit="10" fill="none"/></g></svg>